<svg width="50" height="44" fill="none" xmlns="http://www.w3.org/2000/svg"><path fill-rule="evenodd" clip-rule="evenodd" d="M32.442.255c-.137.142-.805 1.212-1.485 2.379-6.11 10.486-9.92 20.012-11.053 27.63-.273 1.836-.274 5.248-.001 6.363.272 1.117.644 1.9 1.193 2.51 1.287 1.436 3.525 1.61 4.732.37.574-.588.84-1.301.924-2.485.08-1.092-.115-1.813-.8-2.975-.667-1.133-.84-1.75-.918-3.267-.317-6.258 2.602-16.663 7.563-26.956.733-1.521 1.332-2.878 1.332-3.015s-.123-.376-.274-.53c-.352-.363-.876-.373-1.213-.024zm2.542 18.247c-1.126.504-1.392 2.041-.51 2.948.724.743 1.758.743 2.482 0 1.385-1.424-.173-3.753-1.972-2.948zm-25.002.917c-1.126.504-1.392 2.041-.51 2.948 1.254 1.288 3.31.134 2.98-1.673-.198-1.08-1.454-1.73-2.47-1.275zm14.232 2.404c-.704 3.292-1.073 6.765-.963 9.071.076 1.593.28 2.49.768 3.38.848 1.545.981 1.87.98 2.397-.002 1.607-.82 2.237-2.086 1.607-.884-.44-1.328-1.581-1.445-3.715-.182-3.307.748-8.01 2.653-13.416.19-.541.365-.965.388-.942.023.024-.11.752-.295 1.618zm21.267.748c-.496.224-.78.69-.78 1.28 0 .481.051.615.364.936.314.323.442.375.919.375.476 0 .604-.052.918-.375.315-.322.365-.454.365-.944 0-.483-.052-.622-.345-.923-.368-.379-1.023-.537-1.44-.349zm-29.466 1.376c-.497.224-.781.69-.781 1.28 0 .48.052.615.365.936.314.322.442.375.918.375.477 0 .605-.053.919-.375.314-.323.365-.454.365-.944 0-.483-.052-.622-.345-.923-.369-.379-1.024-.537-1.44-.349zm13.394 0c-.497.224-.781.69-.781 1.28 0 .48.052.615.364.936.314.322.442.375.92.375.476 0 .604-.053.918-.375.314-.323.365-.454.365-.944 0-.483-.052-.622-.346-.923-.368-.379-1.023-.537-1.44-.349zm-25.002.917c-.497.224-.781.69-.781 1.28 0 .481.052.615.365.936.314.323.442.375.918.375.477 0 .605-.052.92-.375.313-.322.364-.454.364-.944 0-.483-.052-.622-.345-.923-.369-.379-1.024-.537-1.44-.349zm34.378.459c-.497.224-.782.69-.782 1.279 0 .482.052.615.365.937.314.322.442.374.919.374.476 0 .604-.052.919-.374.314-.323.364-.454.364-.944 0-.483-.052-.622-.345-.923-.368-.379-1.023-.538-1.44-.35zm-26.063 3.445c-2.613.494-3.806.578-8.172.578H.546l-.274.282c-.367.377-.362.9.012 1.283l.285.294 4.821-.061c4.967-.063 4.925-.06 8.25-.654 1.583-.283 2.043-.249 2.435.18.262.286.262.294.13 1.522-.322 2.968.019 5.425 1.05 7.576.41.854.694 1.262 1.369 1.96 3.855 3.992 10.06 2.504 11.468-2.751.146-.547.199-1.157.198-2.293-.001-1.367-.036-1.655-.298-2.465a10.856 10.856 0 00-.801-1.777c-.6-1.025-.652-1.479-.212-1.897.345-.328.62-.344 1.88-.103 3.579.683 3.246.662 11.188.71l7.393.044.28-.29c.37-.379.373-.903.008-1.278l-.274-.282h-6.635c-7.096 0-7.788-.037-10.955-.59-2.727-.478-3.338-.399-4.231.546-.55.581-.773 1.245-.716 2.132.04.623.132.876.68 1.858.793 1.423 1.034 2.41.941 3.84-.195 3.008-1.812 4.816-4.487 5.02-1.55.117-3.003-.45-4.137-1.614-1.654-1.7-2.274-4.536-1.902-8.695.12-1.325-.042-1.926-.668-2.49-1.076-.97-1.978-1.085-4.622-.585z" fill="#D3B288"/></svg>