<svg width="50" height="45" fill="none" xmlns="http://www.w3.org/2000/svg"><path fill-rule="evenodd" clip-rule="evenodd" d="M47.375 1.358c-1.399 1.316-3.708 3.715-5.634 5.853-6.902 7.665-11.488 14.96-12.879 20.484-.574 2.282-.522 3.907.165 5.158 1.034 1.885 3.621 2.365 4.853.902.99-1.175 1.274-2.852.767-4.523-.447-1.472-.342-2.498.526-5.146 2.028-6.188 7-14.062 13.551-21.465C50.12 1.045 50.229.79 49.725.284c-.52-.524-.774-.408-2.35 1.074zM22.701 3.723c-.132.134-.777 1.144-1.433 2.244-5.896 9.894-9.575 18.882-10.667 26.069-.263 1.732-.264 4.951-.002 6.003.264 1.054.623 1.793 1.152 2.37 1.243 1.354 3.402 1.519 4.567.349.554-.556.81-1.229.892-2.346.076-1.03-.11-1.71-.771-2.806-.645-1.07-.812-1.653-.887-3.083-.306-5.905 2.51-15.721 7.299-25.433.707-1.435 1.286-2.715 1.286-2.844 0-.13-.12-.355-.265-.501-.34-.342-.845-.351-1.17-.022zM45.26 13.48c-2.298.4-2.655.49-2.828.703-.283.353-.25.827.081 1.16.294.295.398.3 1.822.075l.431-.067-.493.527c-2.633 2.816-4.22 6.174-4.578 9.686-.069.679-.057.737.205 1 .364.366.853.372 1.209.014.145-.146.264-.383.264-.526 0-.583.355-2.248.699-3.282.719-2.159 1.77-3.893 3.38-5.578.567-.593 1.045-1.036 1.062-.984.017.052-.163.675-.4 1.385-.238.71-.432 1.404-.432 1.544 0 .357.46.784.845.784.6 0 .723-.229 1.688-3.134.503-1.516.914-2.87.914-3.007 0-.382-.461-.784-.884-.77-.195.006-1.538.218-2.985.47zm-9.019 3.746c-.324.6-.871 1.707-1.215 2.46-1.955 4.285-2.645 7.572-2.07 9.856.275 1.09.289 1.634.06 2.31-.385 1.131-1.361 1.364-2.23.532-1.636-1.567.178-7.46 4.203-13.653.892-1.373 1.741-2.596 1.803-2.596.022 0-.226.49-.55 1.09zm-21.48 6.846c-.681 3.114-1.036 6.391-.927 8.559.094 1.861.345 2.685 1.224 4.015.284.429.387.716.43 1.195.146 1.636-.671 2.37-1.977 1.774-.837-.381-1.287-1.515-1.4-3.523-.175-3.12.722-7.557 2.56-12.658.184-.51.353-.91.375-.888.022.022-.106.709-.285 1.526zM4.532 30.52c-2.01.463-3.02.65-3.496.65-.93 0-1.366.862-.749 1.481.269.27.315.278 1.172.218.49-.035 1.54-.22 2.332-.412.793-.191 1.743-.352 2.111-.358.59-.008.706.026.96.281l.289.29-.141 1.469c-.32 3.336.21 5.855 1.664 7.902 2.431 3.42 7.244 3.97 10.068 1.15 1.358-1.355 1.884-2.781 1.882-5.098 0-1.29-.034-1.56-.288-2.325a10.591 10.591 0 00-.79-1.714c-.593-.998-.636-1.4-.193-1.784.28-.242.334-.248 1.326-.162 1.14.1 2.217.109 3.804.032 1.026-.049 1.053-.044 1.342.245l.294.295-.13 1.17c-.31 2.81.018 5.122 1.018 7.162.412.839.661 1.183 1.375 1.894 1.473 1.469 2.932 2.063 5.019 2.046 1.383-.012 2.137-.223 3.297-.923 1.885-1.136 3.07-3.675 2.92-6.256-.074-1.269-.36-2.233-1.056-3.55-.6-1.137-.654-1.53-.265-1.922.332-.333.506-.332 2.44.006 2.472.433 4.112.594 6.052.594 1.778 0 1.815-.004 2.075-.265.35-.352.35-.849 0-1.2-.258-.259-.306-.265-1.928-.265-2.033 0-3.327-.125-5.78-.556-2.558-.45-3.297-.355-4.155.532-.513.53-.727 1.164-.674 1.998.037.576.123.822.543 1.546.68 1.171.963 2.061 1.028 3.24.168 3.05-1.808 5.345-4.605 5.35-2.67.005-4.668-1.776-5.396-4.813-.26-1.085-.33-3.143-.166-4.864.157-1.64-.196-2.34-1.508-2.99l-.697-.344-1.475.129c-1.11.097-1.82.099-2.864.008-1.977-.171-2.739.073-3.424 1.098-.635.948-.572 1.93.21 3.295.84 1.463.92 1.744.93 3.24.011 1.564-.232 2.489-.9 3.425-1.572 2.205-5.129 2.426-7.233.449-1.035-.972-1.715-2.43-1.997-4.284-.166-1.087-.16-1.966.026-4.267.087-1.076-.1-1.684-.669-2.187-.95-.838-1.988-1.027-3.598-.656z" fill="#D3B288"/></svg>