<svg width="50" height="46" fill="none" xmlns="http://www.w3.org/2000/svg"><path fill-rule="evenodd" clip-rule="evenodd" d="M28.63.497c-.895.302-1.525.578-1.645.723-.398.477-.143 1.235.47 1.397l.32.085-.39.656a11.881 11.881 0 00-1.68 5.602c-.072 1.608.048 2.486.536 3.921l.338.996-1.047 2.213a138.498 138.498 0 00-1.318 2.846c-.15.35-.3.636-.337.637-.11.003-.326-.547-.496-1.26-.443-1.861.06-3.88 1.217-4.883.482-.419.562-.544.562-.892 0-.305-.077-.47-.308-.667-.398-.34-.59-.33-1.2.053-1.423.895-2.337 3.198-2.18 5.493.102 1.48.469 2.581 1.308 3.928l.242.387-.506 1.383a85.39 85.39 0 00-.977 2.877c-.26.821-.513 1.537-.562 1.591-.14.153-.757-.9-1.03-1.757-.187-.59-.245-1.039-.242-1.881.006-1.397.263-2.053 1.071-2.723.477-.396.544-.503.544-.875 0-.327-.068-.477-.294-.654-.363-.282-.666-.29-1.103-.025-2.667 1.612-2.742 6.553-.143 9.364l.665.72-.287 1.577c-.736 4.046-.64 7.28.27 9.047 1.084 2.107 3.9 2.777 5.403 1.285.574-.568.84-1.256.925-2.398.077-1.04-.115-1.75-.759-2.807-.746-1.226-.906-1.797-.968-3.457-.071-1.908-.02-2.168.464-2.341.947-.34 2.01-1.515 2.152-2.379.087-.534-.173-.927-.676-1.02-.514-.096-.824.093-1.065.65-.226.523-.566.883-.566.6 0-.283.441-2.698.682-3.736l.23-.99.821.07c1.49.124 2.974-.342 3.575-1.123 1.08-1.403.63-3.528-.903-4.264-.44-.211-.55-.225-.841-.105-.389.16-.55.408-.55.846 0 .232.142.441.558.82.477.435.558.568.558.918 0 .714-.726 1.172-1.86 1.174-.58 0-.819-.087-.819-.297 0-.09.405-1.375.9-2.856l.9-2.692.523.24c.72.329 2.197.33 2.923.003 1.58-.713 2.27-2.277 1.682-3.82-.423-1.11-1.46-1.82-2.026-1.39-.508.387-.56.984-.12 1.391.702.652.772 1.283.206 1.844-.58.575-1.61.659-2.208.178l-.261-.21.427-1.036c.86-2.088 1.675-3.86 2.922-6.358.702-1.406 1.276-2.665 1.276-2.798 0-.134-.123-.365-.274-.514-.353-.35-.876-.36-1.213-.023-.299.298-2.337 3.652-3.705 6.096-1.19 2.126-1.227 2.116-1.225-.315 0-1.27.05-1.842.21-2.434.257-.955.911-2.47 1.384-3.209.352-.55.354-.55.356-.208.003.539.378.927.895.927.332 0 .483-.066.662-.291.211-.266.231-.44.231-2V.638l-.326-.323c-.185-.183-.44-.32-.586-.315-.143.005-.913.228-1.711.497zm-4.39 24.075a47.885 47.885 0 00-.515 2.637c-.1.639-.206 1.323-.238 1.52-.044.284-.11.36-.31.36a.876.876 0 01-.441-.138c-.175-.128-.157-.245.25-1.576a79.61 79.61 0 01.949-2.873c.28-.789.51-1.457.51-1.484 0-.028.03-.022.065.014.036.035-.086.728-.27 1.54zm-1.556 6.214l.526.138.042 1.876c.037 1.69.072 1.965.346 2.762a9.91 9.91 0 00.81 1.692c.4.637.518.94.563 1.438.151 1.67-.718 2.424-2.055 1.782-.56-.268-.962-.864-1.241-1.842-.252-.881-.241-4.189.018-5.725.206-1.215.413-2.271.444-2.264l.547.143zm-9.989.512c-2.647.472-3.91.557-8.213.557H.548l-.274.272A.888.888 0 000 32.74c0 .216.101.443.274.614l.274.272h3.94c4.382 0 5.449-.072 8.492-.567 2.27-.37 2.686-.36 3.093.068l.258.273-.146 1.496c-.331 3.408.219 5.985 1.726 8.078 2.518 3.499 7.549 4.063 10.445 1.172 1.396-1.395 1.94-2.855 1.937-5.21 0-1.319-.036-1.597-.298-2.379a10.293 10.293 0 00-.8-1.714c-.591-.973-.648-1.42-.234-1.83.348-.346.486-.344 2.858.054 3.025.507 4.032.558 11.077.558h6.563l.273-.271a.859.859 0 00.061-1.182l-.213-.261-7.46-.063-7.462-.063-2.4-.419c-3.152-.55-3.698-.497-4.622.447-.55.56-.772 1.2-.716 2.057.04.601.132.845.68 1.793.793 1.373 1.035 2.325.942 3.707-.198 2.926-1.818 4.655-4.543 4.846-1.9.133-3.765-.804-4.808-2.415-.907-1.401-1.402-3.563-1.29-5.63a93.9 93.9 0 01.139-2.073c.09-1.1-.103-1.723-.693-2.237-1.074-.934-1.963-1.042-4.652-.563z" fill="#D3B288"/></svg>