<svg width="50" height="50" fill="none" xmlns="http://www.w3.org/2000/svg"><path fill-rule="evenodd" clip-rule="evenodd" d="M7.636.115c-1.01.19-2.283.895-3.115 1.727-2.448 2.445-2.458 6.337-.024 8.77 1.274 1.272 2.607 1.822 4.424 1.822 1.322 0 2.232-.242 3.188-.848l.537-.34 2.388 2.386 2.387 2.385-.593.902c-1.94 2.945-2.165 6.645-.594 9.742.168.33.263.637.212.681-.05.045-1.345.973-2.875 2.062l-2.783 1.981-.29-.236c-.717-.581-1.638-1.123-2.278-1.34-4.372-1.48-8.821 2.242-8.153 6.822.344 2.359 1.996 4.272 4.383 5.078.853.288 2.724.288 3.577 0 2.055-.694 3.512-2.149 4.206-4.2.156-.463.205-.919.197-1.843-.01-1.183-.072-1.485-.542-2.638-.057-.14.573-.64 2.786-2.218l2.859-2.037.528.491c1.593 1.485 3.319 2.38 5.222 2.708l.782.135.03 3.637.03 3.638-.386.072c-.743.14-1.906.82-2.548 1.493-2.04 2.138-2.047 5.274-.014 7.403a5.29 5.29 0 007.677 0c2.093-2.193 2.008-5.532-.192-7.568-.68-.628-1.714-1.204-2.39-1.332l-.365-.068.029-3.645.03-3.645.279-.03c1.981-.21 4.196-1.3 5.676-2.794l.75-.758 2.683 1.779c1.475.978 2.7 1.793 2.722 1.812.023.02-.067.351-.198.739-1.125 3.314.686 6.815 4.126 7.976.853.287 2.723.287 3.576 0 2.056-.694 3.516-2.153 4.205-4.2.287-.854.287-2.724 0-3.575-.973-2.876-3.604-4.673-6.487-4.43-1.36.116-2.65.66-3.543 1.494-.321.3-.606.48-.702.443-.126-.048-5.126-3.339-5.305-3.491-.023-.02.139-.48.36-1.024 1.29-3.186.869-6.55-1.2-9.576-.142-.208-.017-.352 1.851-2.122a154.375 154.375 0 012.56-2.386l.557-.488.648.345c2.144 1.142 4.54.822 6.283-.838 2.152-2.051 2.214-5.359.141-7.53-2.053-2.15-5.362-2.212-7.535-.141-1.718 1.637-2.141 4.147-1.058 6.282l.276.544-1.757 1.658c-.965.912-2.114 2-2.552 2.42l-.797.76-.738-.558c-3.193-2.415-7.74-2.524-11.17-.268l-.91.597-2.387-2.385-2.388-2.386.34-.537c.607-.955.849-1.864.849-3.185 0-1.806-.548-3.142-1.81-4.415C11.86.358 9.74-.28 7.636.114zm3.121 2.083c1.009.472 1.661 1.113 2.161 2.124.395.798.418.903.418 1.917 0 1.013-.023 1.119-.418 1.916-.502 1.017-1.15 1.65-2.188 2.142-.676.32-.849.353-1.809.353s-1.133-.034-1.808-.353c-1.04-.492-1.686-1.125-2.19-2.142-.393-.796-.417-.904-.417-1.91 0-.966.034-1.138.354-1.813.45-.947 1.089-1.64 1.923-2.085.88-.469 1.362-.575 2.39-.526.67.032 1.028.117 1.584.377zm-2.674.571c-1.455.352-2.54 1.61-2.7 3.128-.063.604-.045.68.221.946.622.622 1.384.265 1.54-.72.156-.987.674-1.505 1.661-1.66.974-.154 1.343-.917.736-1.524-.287-.286-.752-.34-1.458-.17zm34.709 1.248c.756.403 1.097.758 1.533 1.596.252.484.296.713.299 1.52.002.869-.03 1.008-.378 1.652-.423.784-.773 1.122-1.616 1.56-.486.252-.71.296-1.52.296s-1.034-.044-1.521-.296c-.842-.438-1.193-.776-1.616-1.56-.348-.645-.38-.782-.376-1.653.004-1.12.27-1.79.995-2.515 1.116-1.114 2.786-1.353 4.2-.6zm-2.577.58c-.548.174-1.484 1.142-1.652 1.71-.212.717-.172 1.135.139 1.444.554.554 1.514.162 1.514-.619 0-.459.434-.893.894-.893s.894-.435.894-.894c0-.753-.76-1.07-1.788-.747zM27.418 14.66c1.269.404 2.212.992 3.242 2.021 1.021 1.02 1.609 1.956 2.034 3.24.26.788.295 1.07.295 2.4 0 1.332-.034 1.613-.295 2.401-.425 1.283-1.013 2.219-2.034 3.24-1.021 1.02-1.958 1.607-3.242 2.032-.79.26-1.07.295-2.403.295-1.332 0-1.613-.034-2.403-.296-1.284-.424-2.22-1.011-3.241-2.032-1.021-1.02-1.609-1.956-2.034-3.239-.261-.788-.296-1.07-.296-2.4 0-1.332.035-1.613.296-2.402.423-1.277 1.01-2.214 2.034-3.248 1.219-1.231 2.617-1.981 4.247-2.279.981-.179 2.8-.05 3.8.267zm-3.688 1.537c-.307.058-.964.3-1.459.539-2.059.992-3.515 3.27-3.515 5.5 0 .849.923 1.295 1.496.723.197-.196.273-.434.328-1.022.2-2.134 1.913-3.851 4.04-4.048.6-.055.836-.13 1.034-.327.344-.344.336-.866-.019-1.22-.303-.303-.842-.344-1.905-.145zm21.898 14.592c1.009.471 1.661 1.113 2.161 2.124.395.797.418.903.418 1.916 0 1.014-.023 1.12-.418 1.917-.502 1.016-1.15 1.65-2.189 2.141-.675.32-.848.353-1.808.353-.96 0-1.133-.033-1.808-.353-1.04-.492-1.687-1.125-2.19-2.141-.393-.797-.417-.904-.417-1.91 0-.967.034-1.138.354-1.814.45-.947 1.088-1.64 1.922-2.085.88-.468 1.363-.574 2.39-.526.671.032 1.029.117 1.585.378zm-37.553.893c1.008.472 1.66 1.113 2.161 2.124.394.798.417.903.417 1.917 0 1.013-.023 1.119-.417 1.916-.503 1.017-1.15 1.65-2.189 2.142-.675.32-.848.353-1.808.353-.96 0-1.133-.034-1.809-.354-1.039-.491-1.686-1.124-2.189-2.14-.394-.797-.417-.905-.417-1.912 0-.965.033-1.137.354-1.812.449-.947 1.088-1.64 1.922-2.085.88-.469 1.362-.575 2.39-.526.67.032 1.028.117 1.585.377zm34.879-.323c-1.455.352-2.54 1.61-2.7 3.128-.063.605-.045.681.22.947.623.621 1.385.265 1.54-.72.156-.987.675-1.505 1.662-1.661.974-.154 1.343-.917.736-1.523-.287-.287-.752-.341-1.458-.17zM5.4 32.252c-1.455.351-2.541 1.61-2.7 3.128-.063.604-.045.68.22.946.623.621 1.384.265 1.54-.72.156-.987.675-1.505 1.662-1.66.974-.154 1.342-.917.735-1.524-.286-.286-.752-.34-1.457-.17zm21.297 9.29c.755.402 1.097.757 1.532 1.594.252.485.297.713.3 1.52.002.87-.03 1.008-.378 1.653-.423.784-.774 1.122-1.616 1.56-.487.252-.71.296-1.52.296s-1.035-.044-1.521-.297c-.843-.437-1.193-.775-1.616-1.56-.349-.644-.38-.782-.376-1.652.004-1.12.269-1.79.995-2.515 1.116-1.114 2.786-1.353 4.2-.6zm-2.577.58c-.548.172-1.484 1.14-1.652 1.71-.212.715-.172 1.133.138 1.443.555.554 1.514.162 1.514-.62 0-.458.435-.892.894-.892a.9.9 0 00.62-.275c.59-.59.156-1.524-.698-1.501-.234.006-.6.067-.816.135z" fill="#D3B288"/></svg>