<svg width="50" height="38" fill="none" xmlns="http://www.w3.org/2000/svg"><path fill-rule="evenodd" clip-rule="evenodd" d="M24.465.198c-.259.228-10.61 19.488-10.967 20.406-.13.335-.249.62-.264.636-.015.015-.261-.347-.547-.805-.693-1.108-1.963-2.32-2.94-2.803l-.764-.38-4.212-.034-4.213-.035-.28.284c-.368.374-.371.891-.006 1.261l.274.278 3.94.001 3.94.001.6.284c.744.351 1.814 1.442 2.388 2.435.664 1.15.978 2.308 1.088 4.01.111 1.715.303 2.715.77 4.012a12.547 12.547 0 008.393 7.794c6.256 1.749 12.857-1.667 15.063-7.794.459-1.274.649-2.262.771-4.006.058-.812.177-1.745.267-2.072.524-1.923 1.921-3.792 3.313-4.432.467-.215.727-.228 4.435-.23l3.94-.003.274-.278c.365-.37.362-.887-.006-1.26l-.28-.285-4.213.035-4.212.035-.765.378c-1.18.586-2.475 1.918-3.37 3.47-.1.174-.152.112-.355-.425C36.188 19.779 25.806.436 25.535.198A.938.938 0 0025 0a.938.938 0 00-.535.198zm5.433 11.729c2.71 5.05 4.967 9.388 5.153 9.905 2.039 5.662-.957 11.877-6.647 13.79-3.164 1.063-6.59.61-9.303-1.232-2.264-1.536-3.798-3.697-4.497-6.333-.205-.772-.256-1.263-.26-2.49-.004-1.643.17-2.677.669-3.965.307-.795 9.867-18.66 9.985-18.66.043 0 2.248 4.043 4.9 8.985zm-7.303 5.547c-.27.273-.274.306-.274 2.262v1.985h-1.958c-2.668 0-2.506-.175-2.506 2.715 0 2.89-.162 2.715 2.506 2.715h1.958v1.985c0 2.705-.173 2.54 2.679 2.54s2.679.165 2.679-2.54v-1.985h1.958c2.668 0 2.506.176 2.506-2.715 0-2.89.162-2.715-2.506-2.715H27.68v-1.985c0-2.704.173-2.54-2.679-2.54-2.114 0-2.133.002-2.405.278zm3.298 3.517c0 2.687-.145 2.54 2.506 2.54h1.959v1.81h-1.959c-2.65 0-2.506-.146-2.506 2.54v1.986h-1.786v-1.985c0-2.687.145-2.54-2.506-2.54h-1.959V23.53h1.959c2.65 0 2.506.147 2.506-2.54v-1.985h1.786v1.985z" fill="#D3B288"/></svg>